<?xml version="1.0" encoding="UTF-8" standalone="no"?>
<!-- Created with Inkscape (http://www.inkscape.org/) -->

<svg
   width="210.02142mm"
   height="107.13214mm"
   viewBox="0 0 210.02142 107.13214"
   version="1.1"
   id="svg5"
   xml:space="preserve"
   inkscape:version="1.2.1 (9c6d41e410, 2022-07-14)"
   sodipodi:docname="home_background.svg"
   xmlns:inkscape="http://www.inkscape.org/namespaces/inkscape"
   xmlns:sodipodi="http://sodipodi.sourceforge.net/DTD/sodipodi-0.dtd"
   xmlns:xlink="http://www.w3.org/1999/xlink"
   xmlns="http://www.w3.org/2000/svg"
   xmlns:svg="http://www.w3.org/2000/svg"><sodipodi:namedview
     id="namedview7"
     pagecolor="#ffffff"
     bordercolor="#000000"
     borderopacity="0.25"
     inkscape:showpageshadow="2"
     inkscape:pageopacity="0.0"
     inkscape:pagecheckerboard="0"
     inkscape:deskcolor="#d1d1d1"
     inkscape:document-units="mm"
     showgrid="false"
     inkscape:zoom="0.93539562"
     inkscape:cx="306.82205"
     inkscape:cy="279.02632"
     inkscape:window-width="1680"
     inkscape:window-height="987"
     inkscape:window-x="1358"
     inkscape:window-y="-8"
     inkscape:window-maximized="1"
     inkscape:current-layer="layer1" /><defs
     id="defs2" /><g
     inkscape:label="Capa 1"
     inkscape:groupmode="layer"
     id="layer1"
     transform="translate(1.607669e-8,-81.250713)"><path
       sodipodi:type="star"
       style="fill:#ffffff;stroke-width:0.264583"
       id="path3453"
       inkscape:flatsided="false"
       sodipodi:sides="3"
       sodipodi:cx="36.771427"
       sodipodi:cy="174.80569"
       sodipodi:r1="39.893887"
       sodipodi:r2="19.946945"
       sodipodi:arg1="-1.25353"
       sodipodi:arg2="-0.2063325"
       inkscape:rounded="0"
       inkscape:randomized="0"
       d="m 49.217142,136.90284 7.078133,33.81629 7.078129,33.8163 L 30.54857,193.75712 -2.2762651,182.97882 23.470437,159.94083 Z"
       inkscape:transform-center-x="6.2228575"
       inkscape:transform-center-y="-4.0865641"
       transform="translate(3.96,-40.731429)" /><circle
       id="path4020"
       style="fill:#ffffff;stroke:#000000;stroke-width:0.264583"
       cx="0"
       cy="194.03999"
       r="0.0094190734" /><circle
       id="path4022"
       style="fill:#ffffff;stroke:#000000;stroke-width:0.264583"
       cx="0"
       cy="174.1693"
       r="0.0094190734" /><circle
       id="path4024"
       style="fill:#ffffff;stroke:#000000;stroke-width:0.264583"
       cx="33.80143"
       cy="165.40071"
       r="0.0094190734" /><circle
       id="path4026"
       style="fill:#ffffff;stroke:#000000;stroke-width:0.264583"
       cx="173.10883"
       cy="174.80891"
       r="0.013320582" /><circle
       id="path4028"
       style="fill:#ffffff;stroke:#000000;stroke-width:0.264583"
       cx="209.91071"
       cy="160.28317"
       r="0.0033301455" /><circle
       id="path4030"
       style="fill:#ffffff;stroke:#000000;stroke-width:0.264583"
       cx="209.96071"
       cy="194.1599"
       r="0.006660291" /><circle
       id="path4032"
       style="fill:#ffffff;stroke:#000000;stroke-width:0.264583"
       cx="0"
       cy="193.89856"
       r="0.018838147" /><circle
       id="path4034"
       style="fill:#ffffff;stroke:#000000;stroke-width:0.264583"
       cx="14.284286"
       cy="178.48285"
       r="0.018838147" /><path
       style="fill:#ffffff;stroke-width:0.264583"
       id="path4036"
       d="m 19.743536,181.33957 c 1.287106,-0.0308 2.575926,8e-4 3.86344,0.0167 1.370873,0.0117 2.740924,-0.006 4.11194,0.002 0,0 -2.843155,-2.07271 -2.843155,-2.07271 v 0 c -1.419786,-0.0367 -2.839328,-0.0815 -4.259258,-0.11199 -1.355707,-0.0393 -2.709369,-0.1162 -4.065002,-0.15367 0,0 3.192035,2.31915 3.192035,2.31915 z" /><circle
       id="path4038"
       style="fill:#ffffff;stroke:#000000;stroke-width:0.264583"
       cx="34.084286"
       cy="180.88715"
       r="0.018838147" /><path
       style="fill:#ffffff;stroke-width:0.264583"
       id="path4040"
       d="m 46.093221,183.08549 c 1.678109,0.32235 3.361586,0.60655 5.058693,0.80734 1.433232,0.093 2.876936,0.28438 4.315343,0.17321 0.366498,-0.0283 0.730856,-0.0796 1.096285,-0.11944 0.442072,-0.0698 0.88604,-0.12851 1.326214,-0.20942 0.820788,-0.15088 2.4751,-0.52366 3.255782,-0.69667 1.805157,-0.40002 3.60938,-0.7994 5.419916,-1.17442 2.251313,-0.42145 4.499716,-0.86522 6.77654,-1.12497 1.748179,-0.17083 3.506874,-0.1764 5.261676,-0.18689 2.249911,-0.0351 4.465037,-0.46149 6.681771,-0.8037 0,0 -2.868067,-2.02304 -2.868067,-2.02304 v 0 c -2.264921,0.28969 -4.526489,0.67832 -6.818503,0.64576 -1.776137,0.006 -3.560022,-0.0167 -5.32629,0.19863 -2.213713,0.33143 -4.402791,0.80546 -6.58582,1.29661 -1.794875,0.41969 -3.589118,0.82582 -5.397376,1.18469 -0.971907,0.19289 -2.344703,0.46462 -3.341859,0.60583 -0.455391,0.0645 -0.914183,0.10211 -1.371275,0.15316 -0.381386,0.0195 -0.76246,0.0466 -1.144159,0.0585 -1.424757,0.0446 -2.852899,-0.078 -4.270084,-0.2054 -1.754439,-0.21532 -3.492931,-0.52048 -5.213426,-0.9288 0,0 3.144639,2.34903 3.144639,2.34903 z" /><circle
       id="path4044"
       style="fill:#ffff00;stroke:#000000;stroke-width:0.264583"
       cx="-0.14142857"
       cy="193.61571"
       r="0.018838147" /><circle
       id="path4046"
       style="fill:#ffff00;stroke:#000000;stroke-width:0.264583"
       cx="0.14142857"
       cy="174.09857"
       r="0.018838147" /><circle
       id="path4058"
       style="fill:#ffff00;stroke:#000000;stroke-width:0.264583"
       cx="-156.42"
       cy="170.28"
       r="0.037676293" /><g
       id="g5670"
       transform="translate(-1.607669e-8,-5.6571433)"><path
         style="fill:#ffffff;stroke-width:0.264583"
         d="M 0,193.89857 0.14142857,174.02785 33.447857,165.47143 173.10857,174.735 209.95071,160.09714 210.02143,194.04 Z"
         id="path4091" /><path
         style="fill:#006b37;fill-opacity:1;stroke-width:0.264583"
         d="M 0.14142857,173.95714 0.40002041,87.004437 210.02143,86.907856 l -0.11072,73.200314 -36.59,14.55611 L 33.66,165.33 Z"
         id="path4201" /><image
         width="64.153214"
         height="8.0098219"
         preserveAspectRatio="none"
         xlink:href="logo_banco.png"
         id="image5300"
         x="143.57767"
         y="183.67081" /></g></g></svg>
